# xmcd
#
# Track frame offsets:
#	150
#	19661
#	36474
#	56152
#	75231
#	93278
#	112407
#	130871
#	146578
#	160750
#	177485
#
# Disc length: 2523 seconds
#
# Revision: 9
# Processed by: cddbd v1.5.2PL0 Copyright (c) Steve Scherf et al.
# Submitted via: EasyCDDAExtractor 15.3.0.1
#
DISCID=9309d90b
DTITLE=Ana Gabriel - Arpeggios De Amor
DYEAR=2007
DGENRE=Latin
TTITLE0=Cuanto Te Extraño (Homenaje A Martha Laura)
TTITLE1=Te Dire (Version Pop)
TTITLE2=Como Duele
TTITLE3=Sin Miedo A La Verdad
TTITLE4=Pena De Amor
TTITLE5=Se Necesita Algo Mas
TTITLE6=Te Amo
TTITLE7=Contigo
TTITLE8=Que Pena
TTITLE9=Te Dire (Version Grupera)
TTITLE10=Ven A Ver Llover
EXTD=
EXTT0=
EXTT1=
EXTT2=
EXTT3=
EXTT4=
EXTT5=
EXTT6=
EXTT7=
EXTT8=
EXTT9=
EXTT10=
PLAYORDER=
